<svg width="263" height="43" viewBox="0 0 263 43" fill="none" xmlns="http://www.w3.org/2000/svg">
<path d="M24.8242 17.2148C24.3822 17.2148 24.0234 17.5736 24.0234 18.0156C24.0234 18.4577 24.3822 18.8164 24.8242 18.8164C25.2663 18.8164 25.625 18.4577 25.625 18.0156C25.625 17.5736 25.2663 17.2148 24.8242 17.2148Z" fill="#E5627E"/>
<path d="M40.0616 37.5322L29.3727 26.8434C31.114 24.2205 32.0312 21.1831 32.0312 18.0156C32.0312 9.18461 24.8466 2 16.0156 2C7.18461 2 0 9.18461 0 18.0156C0 26.8466 7.18461 34.0312 16.0156 34.0312C19.1832 34.0312 22.2206 33.114 24.8434 31.3728L27.7978 34.3273C27.7982 34.3277 27.7986 34.3281 27.7991 34.3286L35.5321 42.0616C36.1373 42.6667 36.9416 43 37.7969 43C38.6522 43 39.4564 42.6667 40.0613 42.0618C40.6666 41.457 41 40.6527 41 39.7969C41 38.9411 40.6666 38.1368 40.0616 37.5322ZM24.4668 29.6852C24.4668 29.6851 24.4668 29.6852 24.4668 29.6852C21.995 31.4805 19.0726 32.4297 16.0156 32.4297C8.06771 32.4297 1.60156 25.9635 1.60156 18.0156C1.60156 10.0677 8.06771 3.60156 16.0156 3.60156C23.9635 3.60156 30.4297 10.0677 30.4297 18.0156C30.4297 21.0726 29.4807 23.9948 27.6852 26.4667C26.787 27.7041 25.7042 28.787 24.4668 29.6852ZM26.1468 30.4112C26.9756 29.7331 27.7332 28.9755 28.4112 28.1468L30.6831 30.4187C29.9921 31.2341 29.2341 31.9922 28.4187 32.6831L26.1468 30.4112ZM38.9291 40.9291C38.6264 41.2318 38.2243 41.3984 37.7969 41.3984C37.3694 41.3984 36.9673 41.2318 36.6646 40.9291L29.5541 33.8186C30.3651 33.1226 31.1226 32.3651 31.8185 31.5542L38.9293 38.665C39.2318 38.9672 39.3984 39.3691 39.3984 39.7969C39.3984 40.2247 39.2318 40.6266 38.9291 40.9291Z" fill="#E5627E"/>
<path d="M16.0156 5.20312C8.95073 5.20312 3.20312 10.9507 3.20312 18.0156C3.20312 25.0805 8.95073 30.8281 16.0156 30.8281C23.0805 30.8281 28.8281 25.0805 28.8281 18.0156C28.8281 10.9507 23.0805 5.20312 16.0156 5.20312ZM16.0156 29.2266C9.83391 29.2266 4.80469 24.1973 4.80469 18.0156C4.80469 11.8339 9.83391 6.80469 16.0156 6.80469C22.1973 6.80469 27.2266 11.8339 27.2266 18.0156C27.2266 24.1973 22.1973 29.2266 16.0156 29.2266Z" fill="#E5627E"/>
<path d="M24.9896 14.5781C24.3 12.7834 23.0994 11.2489 21.5174 10.1407C19.8977 9.00604 17.9952 8.40625 16.0156 8.40625C15.5734 8.40625 15.2148 8.76484 15.2148 9.20703C15.2148 9.64922 15.5734 10.0078 16.0156 10.0078C19.3068 10.0078 22.3123 12.0753 23.4946 15.1526C23.617 15.471 23.9204 15.6664 24.2423 15.6664C24.3378 15.6664 24.4349 15.6492 24.5293 15.6129C24.9421 15.4542 25.1482 14.991 24.9896 14.5781Z" fill="#E5627E"/>
<path d="M15.742 12.4C17.05 12.4 18.046 12.616 18.73 13.048C19.426 13.468 19.774 14.164 19.774 15.136C19.774 16.036 19.546 16.78 19.09 17.368C18.646 17.944 18.07 18.364 17.362 18.628V18.7C17.71 18.82 17.98 19.078 18.172 19.474C18.364 19.87 18.55 20.362 18.73 20.95L19.774 24.496C19.798 24.592 19.81 24.658 19.81 24.694C19.81 24.802 19.75 24.886 19.63 24.946C19.522 25.006 19.318 25.036 19.018 25.036H18.838C18.658 25.036 18.502 25.018 18.37 24.982C18.238 24.934 18.16 24.856 18.136 24.748L17.146 21.22C16.942 20.524 16.648 20.056 16.264 19.816C15.88 19.576 15.34 19.456 14.644 19.456H13.024L12.484 24.64C12.448 24.904 12.196 25.036 11.728 25.036H11.584C11.32 25.036 11.14 25 11.044 24.928C10.948 24.856 10.9 24.76 10.9 24.64L12.124 12.94C12.16 12.58 12.358 12.4 12.718 12.4H15.742ZM15.868 13.768H13.618L13.168 18.088H15.544C16.024 18.088 16.456 17.968 16.84 17.728C17.224 17.488 17.53 17.176 17.758 16.792C17.986 16.408 18.1 15.994 18.1 15.55C18.1 14.938 17.896 14.488 17.488 14.2C17.08 13.912 16.54 13.768 15.868 13.768Z" fill="#E5627E"/>
<path d="M59.792 7.584C60.296 7.584 60.872 7.644 61.52 7.764C62.192 7.86 62.84 8.004 63.464 8.196C64.088 8.388 64.592 8.628 64.976 8.916C65.384 9.18 65.588 9.468 65.588 9.78C65.588 9.948 65.516 10.188 65.372 10.5C65.228 10.812 65.06 11.088 64.868 11.328C64.7 11.568 64.556 11.688 64.436 11.688C64.268 11.688 63.992 11.58 63.608 11.364C63.224 11.124 62.72 10.896 62.096 10.68C61.472 10.44 60.68 10.32 59.72 10.32C58.808 10.32 58.004 10.476 57.308 10.788C56.612 11.1 56.06 11.556 55.652 12.156C55.268 12.756 55.076 13.5 55.076 14.388C55.076 15.276 55.304 15.972 55.76 16.476C56.216 16.98 56.816 17.388 57.56 17.7C58.304 18.012 59.108 18.336 59.972 18.672C60.764 18.984 61.556 19.332 62.348 19.716C63.164 20.076 63.908 20.532 64.58 21.084C65.252 21.636 65.78 22.332 66.164 23.172C66.572 23.988 66.776 25.008 66.776 26.232C66.776 27.312 66.584 28.284 66.2 29.148C65.84 30.012 65.3 30.744 64.58 31.344C63.884 31.944 63.044 32.412 62.06 32.748C61.1 33.06 60.008 33.216 58.784 33.216C57.392 33.216 56.132 33.072 55.004 32.784C53.876 32.472 52.976 32.112 52.304 31.704C51.656 31.272 51.332 30.9 51.332 30.588C51.332 30.396 51.404 30.144 51.548 29.832C51.716 29.52 51.896 29.244 52.088 29.004C52.28 28.764 52.448 28.644 52.592 28.644C52.736 28.644 53.06 28.8 53.564 29.112C54.068 29.424 54.752 29.736 55.616 30.048C56.48 30.336 57.536 30.48 58.784 30.48C59.696 30.48 60.5 30.312 61.196 29.976C61.916 29.616 62.48 29.124 62.888 28.5C63.296 27.852 63.5 27.096 63.5 26.232C63.5 25.272 63.236 24.504 62.708 23.928C62.204 23.328 61.532 22.836 60.692 22.452C59.852 22.068 58.976 21.696 58.064 21.336C57.296 21.048 56.54 20.736 55.796 20.4C55.052 20.04 54.38 19.608 53.78 19.104C53.18 18.6 52.7 17.964 52.34 17.196C51.98 16.404 51.8 15.42 51.8 14.244C51.8 12.948 52.124 11.808 52.772 10.824C53.444 9.816 54.38 9.024 55.58 8.448C56.78 7.872 58.184 7.584 59.792 7.584ZM78.368 13.956C80 13.956 81.368 14.316 82.472 15.036C83.576 15.756 84.404 16.812 84.956 18.204C85.508 19.596 85.784 21.312 85.784 23.352C85.784 23.496 85.712 23.688 85.568 23.928C85.424 24.168 85.256 24.384 85.064 24.576C84.896 24.744 84.74 24.828 84.596 24.828H73.22C73.364 26.82 73.88 28.284 74.768 29.22C75.656 30.156 76.988 30.624 78.764 30.624C79.796 30.624 80.684 30.504 81.428 30.264C82.172 30 82.76 29.748 83.192 29.508C83.624 29.244 83.9 29.112 84.02 29.112C84.188 29.112 84.368 29.232 84.56 29.472C84.752 29.712 84.92 29.976 85.064 30.264C85.208 30.552 85.28 30.768 85.28 30.912C85.28 31.128 85.112 31.368 84.776 31.632C84.44 31.896 83.972 32.148 83.372 32.388C82.796 32.628 82.112 32.832 81.32 33C80.552 33.144 79.712 33.216 78.8 33.216C75.824 33.216 73.604 32.436 72.14 30.876C70.7 29.316 69.98 26.928 69.98 23.712C69.98 21.6 70.292 19.824 70.916 18.384C71.564 16.92 72.512 15.816 73.76 15.072C75.008 14.328 76.544 13.956 78.368 13.956ZM78.26 16.548C76.7 16.548 75.5 17.028 74.66 17.988C73.82 18.924 73.34 20.34 73.22 22.236H82.58C82.58 20.34 82.22 18.924 81.5 17.988C80.78 17.028 79.7 16.548 78.26 16.548ZM97.0543 13.956C98.5423 13.956 99.8143 14.184 100.87 14.64C101.926 15.072 102.73 15.708 103.282 16.548C103.858 17.388 104.146 18.408 104.146 19.608V27.672C104.146 28.656 104.182 29.472 104.254 30.12C104.326 30.768 104.398 31.272 104.47 31.632C104.542 31.968 104.578 32.16 104.578 32.208C104.578 32.376 104.494 32.52 104.326 32.64C104.182 32.736 104.002 32.82 103.786 32.892C103.57 32.94 103.354 32.976 103.138 33C102.922 33.024 102.754 33.036 102.634 33.036C102.346 33.036 102.118 32.904 101.95 32.64C101.806 32.352 101.686 32.016 101.59 31.632C101.518 31.224 101.446 30.852 101.374 30.516C100.918 31.02 100.39 31.476 99.7903 31.884C99.1903 32.292 98.5183 32.616 97.7743 32.856C97.0543 33.096 96.2383 33.216 95.3263 33.216C93.5743 33.216 92.1103 32.784 90.9343 31.92C89.7583 31.032 89.1703 29.664 89.1703 27.816C89.1703 26.304 89.5303 25.116 90.2503 24.252C90.9703 23.364 91.9183 22.716 93.0943 22.308C94.2703 21.876 95.5543 21.6 96.9463 21.48C98.3623 21.36 99.7543 21.288 101.122 21.264V19.572C101.122 18.756 100.834 18.048 100.258 17.448C99.6823 16.848 98.6503 16.548 97.1623 16.548C96.0823 16.548 95.1343 16.68 94.3183 16.944C93.5263 17.184 92.8903 17.436 92.4103 17.7C91.9543 17.94 91.6663 18.06 91.5463 18.06C91.3783 18.06 91.1983 17.94 91.0063 17.7C90.8143 17.46 90.6463 17.196 90.5023 16.908C90.3583 16.596 90.2863 16.38 90.2863 16.26C90.2863 15.948 90.5983 15.612 91.2223 15.252C91.8463 14.892 92.6743 14.592 93.7063 14.352C94.7383 14.088 95.8543 13.956 97.0543 13.956ZM101.122 23.856C100.186 23.856 99.2143 23.892 98.2063 23.964C97.1983 24.012 96.2503 24.144 95.3623 24.36C94.4743 24.576 93.7543 24.948 93.2023 25.476C92.6743 25.98 92.4103 26.7 92.4103 27.636C92.4103 28.596 92.6623 29.328 93.1663 29.832C93.6943 30.336 94.4623 30.588 95.4703 30.588C96.7903 30.588 97.8823 30.336 98.7463 29.832C99.6103 29.328 100.402 28.752 101.122 28.104V23.856ZM117.211 13.956C117.667 13.956 118.051 14.016 118.363 14.136C118.675 14.256 118.903 14.424 119.047 14.64C119.215 14.856 119.299 15.096 119.299 15.36C119.299 15.6 119.263 15.876 119.191 16.188C119.143 16.476 119.059 16.74 118.939 16.98C118.843 17.196 118.723 17.304 118.579 17.304C118.339 17.304 118.099 17.244 117.859 17.124C117.643 16.98 117.223 16.908 116.599 16.908C115.975 16.908 115.411 17.1 114.907 17.484C114.403 17.844 114.007 18.204 113.719 18.564C113.431 18.924 113.287 19.104 113.287 19.104V32.28C113.287 32.808 112.807 33.072 111.847 33.072H111.703C110.743 33.072 110.263 32.808 110.263 32.28V19.644C110.263 18.66 110.227 17.844 110.155 17.196C110.083 16.548 110.011 16.056 109.939 15.72C109.867 15.384 109.831 15.18 109.831 15.108C109.831 14.94 109.903 14.808 110.047 14.712C110.215 14.592 110.407 14.508 110.623 14.46C110.839 14.388 111.055 14.34 111.271 14.316C111.487 14.292 111.655 14.28 111.775 14.28C112.063 14.28 112.279 14.412 112.423 14.676C112.591 14.94 112.711 15.264 112.783 15.648C112.879 16.008 112.963 16.344 113.035 16.656C113.635 15.792 114.295 15.132 115.015 14.676C115.735 14.196 116.467 13.956 117.211 13.956ZM130.611 13.956C131.547 13.956 132.423 14.04 133.239 14.208C134.055 14.352 134.715 14.556 135.219 14.82C135.747 15.06 136.011 15.324 136.011 15.612C136.011 15.804 135.939 16.056 135.795 16.368C135.675 16.68 135.531 16.956 135.363 17.196C135.195 17.436 135.027 17.556 134.859 17.556C134.835 17.556 134.787 17.544 134.715 17.52C134.643 17.472 134.559 17.436 134.463 17.412C134.127 17.268 133.635 17.088 132.987 16.872C132.339 16.656 131.523 16.548 130.539 16.548C128.955 16.548 127.683 17.076 126.723 18.132C125.787 19.164 125.319 20.928 125.319 23.424C125.319 25.944 125.739 27.78 126.579 28.932C127.419 30.06 128.859 30.624 130.899 30.624C131.907 30.624 132.747 30.516 133.419 30.3C134.115 30.06 134.631 29.856 134.967 29.688C135.063 29.64 135.147 29.604 135.219 29.58C135.291 29.556 135.339 29.544 135.363 29.544C135.531 29.544 135.711 29.664 135.903 29.904C136.095 30.144 136.251 30.408 136.371 30.696C136.515 30.984 136.587 31.212 136.587 31.38C136.587 31.596 136.443 31.812 136.155 32.028C135.867 32.244 135.459 32.448 134.931 32.64C134.427 32.808 133.827 32.94 133.131 33.036C132.459 33.156 131.727 33.216 130.935 33.216C128.007 33.216 125.799 32.472 124.311 30.984C122.823 29.472 122.079 26.976 122.079 23.496C122.079 21.624 122.319 20.076 122.799 18.852C123.303 17.604 123.963 16.632 124.779 15.936C125.619 15.216 126.543 14.712 127.551 14.424C128.559 14.112 129.579 13.956 130.611 13.956ZM142.576 5.928C143.536 5.928 144.016 6.192 144.016 6.72V16.44C144.64 15.816 145.42 15.252 146.356 14.748C147.316 14.22 148.372 13.956 149.524 13.956C150.1 13.956 150.712 14.04 151.36 14.208C152.032 14.352 152.656 14.628 153.232 15.036C153.832 15.444 154.312 16.032 154.672 16.8C155.056 17.568 155.248 18.564 155.248 19.788V32.28C155.248 32.808 154.768 33.072 153.808 33.072H153.664C152.704 33.072 152.224 32.808 152.224 32.28V20.076C152.224 19.02 151.912 18.18 151.288 17.556C150.688 16.908 149.776 16.584 148.552 16.584C147.88 16.584 147.268 16.716 146.716 16.98C146.164 17.22 145.684 17.508 145.276 17.844C144.868 18.18 144.556 18.48 144.34 18.744C144.124 18.984 144.016 19.104 144.016 19.104V32.28C144.016 32.808 143.536 33.072 142.576 33.072H142.432C141.472 33.072 140.992 32.808 140.992 32.28V6.72C140.992 6.192 141.472 5.928 142.432 5.928H142.576ZM177.304 7.8C180.112 7.8 182.26 8.292 183.748 9.276C185.236 10.26 185.98 11.892 185.98 14.172C185.98 15.732 185.608 17.016 184.864 18.024C184.12 19.008 183.112 19.752 181.84 20.256V20.4C182.584 20.64 183.196 21.156 183.676 21.948C184.156 22.74 184.624 23.724 185.08 24.9L187.888 31.992C187.96 32.208 187.996 32.376 187.996 32.496C187.996 32.88 187.492 33.072 186.484 33.072H186.124C185.764 33.072 185.452 33.024 185.188 32.928C184.924 32.832 184.756 32.688 184.684 32.496L181.948 25.44C181.42 24.048 180.748 23.112 179.932 22.632C179.116 22.152 178 21.912 176.584 21.912H173.344V32.28C173.344 32.808 172.864 33.072 171.904 33.072H171.616C170.656 33.072 170.176 32.808 170.176 32.28V8.88C170.176 8.16 170.536 7.8 171.256 7.8H177.304ZM177.844 10.536H173.344V19.176H178.096C178.96 19.176 179.74 18.972 180.436 18.564C181.132 18.156 181.684 17.616 182.092 16.944C182.5 16.272 182.704 15.54 182.704 14.748C182.704 13.284 182.26 12.216 181.372 11.544C180.484 10.872 179.308 10.536 177.844 10.536ZM199.024 13.956C200.656 13.956 202.024 14.316 203.128 15.036C204.232 15.756 205.06 16.812 205.612 18.204C206.164 19.596 206.44 21.312 206.44 23.352C206.44 23.496 206.368 23.688 206.224 23.928C206.08 24.168 205.912 24.384 205.72 24.576C205.552 24.744 205.396 24.828 205.252 24.828H193.876C194.02 26.82 194.536 28.284 195.424 29.22C196.312 30.156 197.644 30.624 199.42 30.624C200.452 30.624 201.34 30.504 202.084 30.264C202.828 30 203.416 29.748 203.848 29.508C204.28 29.244 204.556 29.112 204.676 29.112C204.844 29.112 205.024 29.232 205.216 29.472C205.408 29.712 205.576 29.976 205.72 30.264C205.864 30.552 205.936 30.768 205.936 30.912C205.936 31.128 205.768 31.368 205.432 31.632C205.096 31.896 204.628 32.148 204.028 32.388C203.452 32.628 202.768 32.832 201.976 33C201.208 33.144 200.368 33.216 199.456 33.216C196.48 33.216 194.26 32.436 192.796 30.876C191.356 29.316 190.636 26.928 190.636 23.712C190.636 21.6 190.948 19.824 191.572 18.384C192.22 16.92 193.168 15.816 194.416 15.072C195.664 14.328 197.2 13.956 199.024 13.956ZM198.916 16.548C197.356 16.548 196.156 17.028 195.316 17.988C194.476 18.924 193.996 20.34 193.876 22.236H203.236C203.236 20.34 202.876 18.924 202.156 17.988C201.436 17.028 200.356 16.548 198.916 16.548ZM219.655 13.956C221.143 13.956 222.403 14.376 223.435 15.216C224.491 16.056 225.283 17.208 225.811 18.672C226.363 20.112 226.639 21.756 226.639 23.604C226.639 26.724 225.955 29.112 224.587 30.768C223.219 32.4 221.467 33.216 219.331 33.216C218.203 33.216 217.231 33.048 216.415 32.712C215.623 32.376 214.879 31.932 214.183 31.38V39.696C214.183 40.224 213.703 40.488 212.743 40.488H212.599C211.639 40.488 211.159 40.224 211.159 39.696V19.644C211.159 18.66 211.123 17.844 211.051 17.196C210.979 16.548 210.907 16.056 210.835 15.72C210.763 15.384 210.727 15.18 210.727 15.108C210.727 14.94 210.799 14.808 210.943 14.712C211.111 14.592 211.303 14.508 211.519 14.46C211.735 14.388 211.951 14.34 212.167 14.316C212.383 14.292 212.551 14.28 212.671 14.28C212.959 14.28 213.175 14.412 213.319 14.676C213.487 14.94 213.607 15.264 213.679 15.648C213.775 16.008 213.859 16.344 213.931 16.656C214.819 15.744 215.731 15.072 216.667 14.64C217.627 14.184 218.623 13.956 219.655 13.956ZM219.043 16.584C218.251 16.584 217.423 16.8 216.559 17.232C215.719 17.64 214.927 18.252 214.183 19.068V28.932C214.831 29.484 215.527 29.892 216.271 30.156C217.039 30.42 217.831 30.552 218.646 30.552C220.255 30.504 221.455 29.916 222.247 28.788C223.063 27.636 223.471 25.992 223.471 23.856C223.471 21.528 223.087 19.74 222.319 18.492C221.551 17.22 220.459 16.584 219.043 16.584ZM239.031 13.956C241.671 13.956 243.687 14.796 245.079 16.476C246.495 18.132 247.203 20.532 247.203 23.676C247.203 26.796 246.507 29.172 245.115 30.804C243.747 32.412 241.719 33.216 239.031 33.216C236.319 33.216 234.243 32.4 232.803 30.768C231.387 29.136 230.679 26.772 230.679 23.676C230.679 20.556 231.399 18.156 232.839 16.476C234.279 14.796 236.343 13.956 239.031 13.956ZM238.923 16.548C237.171 16.548 235.887 17.124 235.071 18.276C234.255 19.404 233.847 21.18 233.847 23.604C233.847 26.004 234.243 27.78 235.035 28.932C235.851 30.06 237.147 30.624 238.923 30.624C240.699 30.624 241.995 30.06 242.811 28.932C243.651 27.78 244.071 26.004 244.071 23.604C244.071 21.204 243.651 19.428 242.811 18.276C241.995 17.124 240.699 16.548 238.923 16.548Z" fill="#E5627E"/>
</svg>
